<mxfile host="app.diagrams.net" modified="2023-08-03T01:32:09.742Z" agent="Mozilla/5.0 (Windows NT 10.0; Win64; x64) AppleWebKit/537.36 (KHTML, like Gecko) Chrome/102.0.0.0 Safari/537.36" etag="IHYHQO9WlnZMr7SrhR2O" version="21.6.3" type="github">
  <diagram name="第 1 页" id="CUinMZfvPzG4sfz4qJS8">
    <mxGraphModel dx="1434" dy="764" grid="1" gridSize="10" guides="1" tooltips="1" connect="1" arrows="1" fold="1" page="1" pageScale="1" pageWidth="827" pageHeight="1169" math="0" shadow="0">
      <root>
        <mxCell id="0" />
        <mxCell id="1" parent="0" />
        <mxCell id="iQEkDpjG-B_L7BJ3QaX4-7" value="HomeMenuRepository" style="shape=umlLifeline;perimeter=lifelinePerimeter;whiteSpace=wrap;html=1;container=1;dropTarget=0;collapsible=0;recursiveResize=0;outlineConnect=0;portConstraint=eastwest;newEdgeStyle={&quot;edgeStyle&quot;:&quot;elbowEdgeStyle&quot;,&quot;elbow&quot;:&quot;vertical&quot;,&quot;curved&quot;:0,&quot;rounded&quot;:0};" vertex="1" parent="1">
          <mxGeometry x="370" y="70" width="100" height="310" as="geometry" />
        </mxCell>
        <mxCell id="iQEkDpjG-B_L7BJ3QaX4-14" value="" style="html=1;points=[];perimeter=orthogonalPerimeter;outlineConnect=0;targetShapes=umlLifeline;portConstraint=eastwest;newEdgeStyle={&quot;edgeStyle&quot;:&quot;elbowEdgeStyle&quot;,&quot;elbow&quot;:&quot;vertical&quot;,&quot;curved&quot;:0,&quot;rounded&quot;:0};" vertex="1" parent="iQEkDpjG-B_L7BJ3QaX4-7">
          <mxGeometry x="45" y="70" width="10" height="190" as="geometry" />
        </mxCell>
        <mxCell id="iQEkDpjG-B_L7BJ3QaX4-8" value="HomeMenuViewModel" style="shape=umlLifeline;perimeter=lifelinePerimeter;whiteSpace=wrap;html=1;container=1;dropTarget=0;collapsible=0;recursiveResize=0;outlineConnect=0;portConstraint=eastwest;newEdgeStyle={&quot;edgeStyle&quot;:&quot;elbowEdgeStyle&quot;,&quot;elbow&quot;:&quot;vertical&quot;,&quot;curved&quot;:0,&quot;rounded&quot;:0};" vertex="1" parent="1">
          <mxGeometry x="230" y="70" width="100" height="300" as="geometry" />
        </mxCell>
        <mxCell id="iQEkDpjG-B_L7BJ3QaX4-12" value="" style="html=1;points=[];perimeter=orthogonalPerimeter;outlineConnect=0;targetShapes=umlLifeline;portConstraint=eastwest;newEdgeStyle={&quot;edgeStyle&quot;:&quot;elbowEdgeStyle&quot;,&quot;elbow&quot;:&quot;vertical&quot;,&quot;curved&quot;:0,&quot;rounded&quot;:0};" vertex="1" parent="iQEkDpjG-B_L7BJ3QaX4-8">
          <mxGeometry x="45" y="70" width="10" height="80" as="geometry" />
        </mxCell>
        <mxCell id="iQEkDpjG-B_L7BJ3QaX4-19" value="onMenuLoaded" style="html=1;points=[];perimeter=orthogonalPerimeter;outlineConnect=0;targetShapes=umlLifeline;portConstraint=eastwest;newEdgeStyle={&quot;edgeStyle&quot;:&quot;elbowEdgeStyle&quot;,&quot;elbow&quot;:&quot;vertical&quot;,&quot;curved&quot;:0,&quot;rounded&quot;:0};" vertex="1" parent="iQEkDpjG-B_L7BJ3QaX4-8">
          <mxGeometry x="45" y="110" width="10" height="80" as="geometry" />
        </mxCell>
        <mxCell id="iQEkDpjG-B_L7BJ3QaX4-9" value="HomeMainActivity" style="shape=umlLifeline;perimeter=lifelinePerimeter;whiteSpace=wrap;html=1;container=1;dropTarget=0;collapsible=0;recursiveResize=0;outlineConnect=0;portConstraint=eastwest;newEdgeStyle={&quot;edgeStyle&quot;:&quot;elbowEdgeStyle&quot;,&quot;elbow&quot;:&quot;vertical&quot;,&quot;curved&quot;:0,&quot;rounded&quot;:0};" vertex="1" parent="1">
          <mxGeometry x="90" y="70" width="100" height="300" as="geometry" />
        </mxCell>
        <mxCell id="iQEkDpjG-B_L7BJ3QaX4-28" value="observe" style="html=1;points=[];perimeter=orthogonalPerimeter;outlineConnect=0;targetShapes=umlLifeline;portConstraint=eastwest;newEdgeStyle={&quot;edgeStyle&quot;:&quot;elbowEdgeStyle&quot;,&quot;elbow&quot;:&quot;vertical&quot;,&quot;curved&quot;:0,&quot;rounded&quot;:0};" vertex="1" parent="iQEkDpjG-B_L7BJ3QaX4-9">
          <mxGeometry x="45" y="170" width="10" height="80" as="geometry" />
        </mxCell>
        <mxCell id="iQEkDpjG-B_L7BJ3QaX4-10" value="LocalMenuDataSource" style="shape=umlLifeline;perimeter=lifelinePerimeter;whiteSpace=wrap;html=1;container=1;dropTarget=0;collapsible=0;recursiveResize=0;outlineConnect=0;portConstraint=eastwest;newEdgeStyle={&quot;edgeStyle&quot;:&quot;elbowEdgeStyle&quot;,&quot;elbow&quot;:&quot;vertical&quot;,&quot;curved&quot;:0,&quot;rounded&quot;:0};" vertex="1" parent="1">
          <mxGeometry x="530" y="70" width="100" height="300" as="geometry" />
        </mxCell>
        <mxCell id="iQEkDpjG-B_L7BJ3QaX4-16" value="" style="html=1;points=[];perimeter=orthogonalPerimeter;outlineConnect=0;targetShapes=umlLifeline;portConstraint=eastwest;newEdgeStyle={&quot;edgeStyle&quot;:&quot;elbowEdgeStyle&quot;,&quot;elbow&quot;:&quot;vertical&quot;,&quot;curved&quot;:0,&quot;rounded&quot;:0};" vertex="1" parent="iQEkDpjG-B_L7BJ3QaX4-10">
          <mxGeometry x="40" y="70" width="10" height="210" as="geometry" />
        </mxCell>
        <mxCell id="iQEkDpjG-B_L7BJ3QaX4-11" value="MenuPermissionDataSource" style="shape=umlLifeline;perimeter=lifelinePerimeter;whiteSpace=wrap;html=1;container=1;dropTarget=0;collapsible=0;recursiveResize=0;outlineConnect=0;portConstraint=eastwest;newEdgeStyle={&quot;edgeStyle&quot;:&quot;elbowEdgeStyle&quot;,&quot;elbow&quot;:&quot;vertical&quot;,&quot;curved&quot;:0,&quot;rounded&quot;:0};" vertex="1" parent="1">
          <mxGeometry x="700" y="70" width="100" height="300" as="geometry" />
        </mxCell>
        <mxCell id="iQEkDpjG-B_L7BJ3QaX4-21" value="" style="html=1;points=[];perimeter=orthogonalPerimeter;outlineConnect=0;targetShapes=umlLifeline;portConstraint=eastwest;newEdgeStyle={&quot;edgeStyle&quot;:&quot;elbowEdgeStyle&quot;,&quot;elbow&quot;:&quot;vertical&quot;,&quot;curved&quot;:0,&quot;rounded&quot;:0};" vertex="1" parent="iQEkDpjG-B_L7BJ3QaX4-11">
          <mxGeometry x="50" y="160" width="10" height="80" as="geometry" />
        </mxCell>
        <mxCell id="iQEkDpjG-B_L7BJ3QaX4-24" value="checkPermission" style="html=1;points=[];perimeter=orthogonalPerimeter;outlineConnect=0;targetShapes=umlLifeline;portConstraint=eastwest;newEdgeStyle={&quot;edgeStyle&quot;:&quot;elbowEdgeStyle&quot;,&quot;elbow&quot;:&quot;vertical&quot;,&quot;curved&quot;:0,&quot;rounded&quot;:0};" vertex="1" parent="iQEkDpjG-B_L7BJ3QaX4-11">
          <mxGeometry x="50" y="260" width="10" height="40" as="geometry" />
        </mxCell>
        <mxCell id="iQEkDpjG-B_L7BJ3QaX4-25" value="onSuccess" style="html=1;align=left;spacingLeft=2;endArrow=block;rounded=0;edgeStyle=orthogonalEdgeStyle;curved=0;rounded=0;" edge="1" target="iQEkDpjG-B_L7BJ3QaX4-24" parent="iQEkDpjG-B_L7BJ3QaX4-11" source="iQEkDpjG-B_L7BJ3QaX4-21">
          <mxGeometry relative="1" as="geometry">
            <mxPoint x="55" y="240" as="sourcePoint" />
            <Array as="points">
              <mxPoint x="85" y="200" />
              <mxPoint x="85" y="270" />
            </Array>
          </mxGeometry>
        </mxCell>
        <mxCell id="iQEkDpjG-B_L7BJ3QaX4-13" value="loadMyMenu" style="html=1;verticalAlign=bottom;startArrow=oval;endArrow=block;startSize=8;edgeStyle=elbowEdgeStyle;elbow=vertical;curved=0;rounded=0;" edge="1" target="iQEkDpjG-B_L7BJ3QaX4-12" parent="1" source="iQEkDpjG-B_L7BJ3QaX4-9">
          <mxGeometry relative="1" as="geometry">
            <mxPoint x="210" y="140" as="sourcePoint" />
          </mxGeometry>
        </mxCell>
        <mxCell id="iQEkDpjG-B_L7BJ3QaX4-15" value="loadMenu" style="html=1;verticalAlign=bottom;startArrow=oval;endArrow=block;startSize=8;edgeStyle=elbowEdgeStyle;elbow=vertical;curved=0;rounded=0;" edge="1" target="iQEkDpjG-B_L7BJ3QaX4-14" parent="1">
          <mxGeometry relative="1" as="geometry">
            <mxPoint x="290" y="180" as="sourcePoint" />
          </mxGeometry>
        </mxCell>
        <mxCell id="iQEkDpjG-B_L7BJ3QaX4-17" value="loadMenu" style="html=1;verticalAlign=bottom;startArrow=oval;endArrow=block;startSize=8;edgeStyle=elbowEdgeStyle;elbow=vertical;curved=0;rounded=0;" edge="1" target="iQEkDpjG-B_L7BJ3QaX4-16" parent="1">
          <mxGeometry relative="1" as="geometry">
            <mxPoint x="430" y="180" as="sourcePoint" />
          </mxGeometry>
        </mxCell>
        <mxCell id="iQEkDpjG-B_L7BJ3QaX4-18" value="onNext" style="html=1;verticalAlign=bottom;startArrow=oval;startFill=1;endArrow=block;startSize=8;edgeStyle=elbowEdgeStyle;elbow=vertical;curved=0;rounded=0;" edge="1" parent="1" source="iQEkDpjG-B_L7BJ3QaX4-16" target="iQEkDpjG-B_L7BJ3QaX4-19">
          <mxGeometry width="60" relative="1" as="geometry">
            <mxPoint x="380" y="390" as="sourcePoint" />
            <mxPoint x="440" y="390" as="targetPoint" />
          </mxGeometry>
        </mxCell>
        <mxCell id="iQEkDpjG-B_L7BJ3QaX4-20" value="onComplete" style="html=1;verticalAlign=bottom;startArrow=oval;startFill=1;endArrow=block;startSize=8;edgeStyle=elbowEdgeStyle;elbow=vertical;curved=0;rounded=0;" edge="1" parent="1" source="iQEkDpjG-B_L7BJ3QaX4-16" target="iQEkDpjG-B_L7BJ3QaX4-7">
          <mxGeometry width="60" relative="1" as="geometry">
            <mxPoint x="380" y="390" as="sourcePoint" />
            <mxPoint x="440" y="390" as="targetPoint" />
          </mxGeometry>
        </mxCell>
        <mxCell id="iQEkDpjG-B_L7BJ3QaX4-22" value="loadMenu" style="html=1;verticalAlign=bottom;startArrow=oval;endArrow=block;startSize=8;edgeStyle=elbowEdgeStyle;elbow=vertical;curved=0;rounded=0;" edge="1" target="iQEkDpjG-B_L7BJ3QaX4-21" parent="1" source="iQEkDpjG-B_L7BJ3QaX4-14">
          <mxGeometry relative="1" as="geometry">
            <mxPoint x="690" y="230" as="sourcePoint" />
          </mxGeometry>
        </mxCell>
        <mxCell id="iQEkDpjG-B_L7BJ3QaX4-26" value="onSuccess" style="html=1;verticalAlign=bottom;startArrow=oval;startFill=1;endArrow=block;startSize=8;edgeStyle=elbowEdgeStyle;elbow=vertical;curved=0;rounded=0;" edge="1" parent="1" source="iQEkDpjG-B_L7BJ3QaX4-24" target="iQEkDpjG-B_L7BJ3QaX4-19">
          <mxGeometry width="60" relative="1" as="geometry">
            <mxPoint x="710" y="490" as="sourcePoint" />
            <mxPoint x="770" y="490" as="targetPoint" />
            <Array as="points">
              <mxPoint x="510" y="350" />
            </Array>
          </mxGeometry>
        </mxCell>
        <mxCell id="iQEkDpjG-B_L7BJ3QaX4-27" value="menuLivedata.setValue" style="html=1;verticalAlign=bottom;endArrow=open;dashed=1;endSize=8;edgeStyle=elbowEdgeStyle;elbow=horizontal;curved=0;rounded=0;" edge="1" parent="1">
          <mxGeometry relative="1" as="geometry">
            <mxPoint x="275" y="230" as="sourcePoint" />
            <mxPoint x="145" y="290" as="targetPoint" />
            <Array as="points">
              <mxPoint x="220" y="260" />
            </Array>
          </mxGeometry>
        </mxCell>
      </root>
    </mxGraphModel>
  </diagram>
</mxfile>
